#N canvas 652 377 450 413 10;
#X obj 102 22 cnv 15 56 56 empty empty AOUT~ 8 12 0 8 -204786 -13330
0;
#X obj 99 118 inlet~;
#X obj 155 118 inlet~;
#X obj 100 140 *~;
#X obj 155 140 *~;
#X obj 100 207 dac~;
#X obj 108 56 nbx 5 14 0 127 0 0 empty empty max:127 0 -6 0 8 -13330
-262144 -13330 0 256;
#X obj 109 90 / 128;
#X obj 141 27 tgl 12 0 empty empty empty 17 7 0 10 -13330 -262144 -13330
0 1;
#X connect 1 0 3 0;
#X connect 2 0 4 0;
#X connect 3 0 5 0;
#X connect 4 0 5 1;
#X connect 6 0 7 0;
#X connect 7 0 3 1;
#X connect 7 0 4 1;
#X connect 8 0 3 1;
#X connect 8 0 4 1;
#X coords 0 -1 1 1 60 60 1 100 20;
