#N canvas 851 354 578 490 10;
#X obj 102 102 cnv 15 116 126 empty empty BANDS~ 8 12 0 10 -204786
-13330 0;
#X obj 111 138 hsl 100 15 20 6000 1 0 empty empty freq -2 -8 0 8 -13330
-262144 -13330 0 1;
#X obj 111 171 hsl 100 15 0.01 1000 1 0 empty empty bandwidth -2 -8
0 8 -13330 -262144 -13330 0 1;
#X obj 111 204 hsl 100 15 0 64 0 0 empty empty sep -2 -8 0 8 -13330
-262144 -13330 0 1;
#X obj 469 15 inlet;
#X obj 374 15 inlet;
#X obj 425 15 inlet;
#X obj 320 15 inlet~;
#X msg 406 118 control freq \$1;
#X msg 406 148 control bw \$1;
#X msg 406 176 control sep \$1;
#X obj 85 342 loadbang;
#X msg 150 342 set freq bw sep;
#X obj 271 367 outlet~;
#X obj 272 342 csound6~ bands~.csd;
#X obj 266 16 inlet~;
#X obj 333 367 outlet~;
#X connect 1 0 8 0;
#X connect 2 0 9 0;
#X connect 3 0 10 0;
#X connect 4 0 3 0;
#X connect 5 0 1 0;
#X connect 6 0 2 0;
#X connect 7 0 14 1;
#X connect 8 0 14 0;
#X connect 9 0 14 0;
#X connect 10 0 14 0;
#X connect 11 0 12 0;
#X connect 12 0 14 0;
#X connect 14 0 13 0;
#X connect 14 1 16 0;
#X connect 15 0 14 0;
#X coords 0 -1 1 1 120 130 1 100 100;
