#N canvas 579 136 450 640 10;
#X obj 16 554 aout;
#X obj 13 6 vco;
#X obj 14 307 moogvcf;
#X obj 272 307 offset~;
#X obj 14 136 noise~;
#X obj 14 167 bands;
#X obj 142 136 noise~;
#X obj 142 167 bands;
#X obj 272 135 noise~;
#X obj 272 166 bands;
#X obj 272 396 tomsg~;
#X obj 272 422 * 4;
#X obj 15 506 rev1~;
#X floatatom 31 483 5 0 0 0 - - -, f 5;
#X obj 142 307 vco;
#X obj 142 435 *~ 0.02;
#X msg 75 481 clear;
#X obj 14 459 *~ 20;
#X connect 1 0 7 0;
#X connect 1 1 9 0;
#X connect 1 2 5 0;
#X connect 2 0 17 0;
#X connect 2 1 17 0;
#X connect 3 0 10 0;
#X connect 4 0 5 0;
#X connect 5 0 2 0;
#X connect 6 0 7 0;
#X connect 7 0 2 1;
#X connect 8 0 9 0;
#X connect 9 0 3 0;
#X connect 10 0 11 0;
#X connect 11 0 2 2;
#X connect 12 0 0 0;
#X connect 12 0 0 1;
#X connect 13 0 12 1;
#X connect 14 2 15 0;
#X connect 15 0 17 0;
#X connect 16 0 12 2;
#X connect 17 0 12 0;
