#N canvas 787 331 488 496 10;
#X obj 102 102 cnv 15 116 126 empty empty MoogLP~ 8 12 0 10 -204786
-13330 0;
#X obj 111 206 hsl 100 15 0 10 0 0 empty empty saturation -2 -8 0 8
-13330 -262144 -13330 4970 1;
#X obj 111 138 hsl 100 15 40 8000 1 0 empty empty cutoff -2 -8 0 8
-13330 -262144 -13330 3581 1;
#X obj 111 171 hsl 100 15 0 5 0 0 empty empty resonance -2 -8 0 8 -13330
-262144 -13330 4300 1;
#X obj 246 50 inlet~;
#X obj 308 50 inlet~;
#X obj 19 99 loadbang;
#X obj 416 49 inlet;
#X obj 366 49 inlet;
#X obj 19 167 loadbang;
#X msg 108 257 saturation \$1;
#X obj 382 130 pack 0 50;
#X obj 382 152 line~;
#X obj 388 185 line~;
#X obj 245 311 bob~;
#X obj 309 310 bob~;
#X obj 245 333 outlet~;
#X obj 309 332 outlet~;
#X msg 19 121 440;
#X msg 19 189 3;
#X text 23 42 This stopped working atm... I don't know why, f 28;
#X connect 1 0 10 0;
#X connect 2 0 11 0;
#X connect 3 0 13 0;
#X connect 4 0 14 0;
#X connect 5 0 15 0;
#X connect 6 0 18 0;
#X connect 7 0 3 0;
#X connect 8 0 2 0;
#X connect 9 0 19 0;
#X connect 10 0 14 0;
#X connect 10 0 15 0;
#X connect 11 0 12 0;
#X connect 12 0 14 1;
#X connect 12 0 15 1;
#X connect 13 0 14 2;
#X connect 13 0 15 2;
#X connect 14 0 16 0;
#X connect 15 0 17 0;
#X connect 18 0 2 0;
#X connect 19 0 1 0;
#X coords 0 -1 1 1 120 130 1 100 100;
