#N canvas 227 446 450 429 10;
#X obj 102 102 cnv 15 116 76 empty empty Offset~ 70 10 0 10 -204786
-13330 0;
#X obj 111 153 hsl 100 15 0 127 0 0 empty empty offset*127 -2 -7 0
8 -13330 -262144 -13330 0 1;
#X obj 111 120 hsl 100 15 0 127 0 0 empty empty amp*127 -2 -7 0 8 -13330
-262144 -13330 0 1;
#X obj 5 218 *~;
#X obj 5 251 +~;
#X obj 72 52 inlet~;
#X obj 5 52 inlet~;
#X obj 72 217 *~;
#X obj 72 250 +~;
#X obj 4 280 outlet~;
#X obj 72 280 outlet~;
#X obj 135 51 inlet;
#X obj 187 51 inlet;
#X connect 1 0 4 1;
#X connect 1 0 8 1;
#X connect 2 0 7 1;
#X connect 2 0 3 1;
#X connect 3 0 4 0;
#X connect 4 0 9 0;
#X connect 5 0 7 0;
#X connect 6 0 3 0;
#X connect 7 0 8 0;
#X connect 8 0 10 0;
#X connect 11 0 2 0;
#X connect 12 0 1 0;
#X coords 0 -1 1 1 120 80 1 100 100;
