#N canvas 580 113 450 737 10;
#X obj 141 165 offset~;
#X obj 141 27 bands~;
#X obj 12 246 vco~;
#X obj 12 9 tgl 15 0 empty empty empty 17 7 0 10 -262144 -1 -1 0 1
;
#X obj 12 29 sig~;
#X obj 12 51 adsr~;
#X obj 12 221 tomsg~;
#X obj 12 580 aout~;
#X obj 141 6 noise~;
#X obj 12 512 sat~;
#X obj 12 373 lpf~;
#X connect 1 0 10 1;
#X connect 2 1 10 0;
#X connect 3 0 4 0;
#X connect 4 0 5 0;
#X connect 5 0 6 0;
#X connect 6 0 2 1;
#X connect 8 0 1 0;
#X connect 9 0 7 0;
#X connect 9 0 7 1;
#X connect 9 1 7 1;
#X connect 9 1 7 0;
#X connect 10 0 9 0;
#X connect 10 1 9 1;
