#N canvas 577 108 450 737 10;
#X obj 142 288 offset~;
#X obj 141 27 bands~;
#X obj 12 373 mooglp~;
#X obj 12 246 vco~;
#X obj 12 9 tgl 15 0 empty empty empty 17 7 0 10 -262144 -1 -1 0 1
;
#X obj 12 29 sig~;
#X obj 12 51 adsr~;
#X obj 142 164 vco~;
#X obj 12 221 tomsg~;
#X obj 11 538 aout~;
#X obj 142 393 tomsg~;
#X obj 60 511 +~;
#X obj 141 6 noise~;
#X connect 0 0 10 0;
#X connect 1 0 2 1;
#X connect 2 0 11 0;
#X connect 2 1 11 0;
#X connect 3 1 2 0;
#X connect 3 1 1 0;
#X connect 4 0 5 0;
#X connect 5 0 6 0;
#X connect 6 0 8 0;
#X connect 7 0 0 0;
#X connect 8 0 3 1;
#X connect 10 0 2 2;
#X connect 11 0 9 0;
#X connect 11 0 9 1;
#X connect 12 0 1 0;
